<?xml version="1.0" encoding="UTF-8" standalone="no"?>
<!DOCTYPE svg PUBLIC "-//W3C//DTD SVG 1.1//EN"
 "http://www.w3.org/Graphics/SVG/1.1/DTD/svg11.dtd">
<!-- Generated by graphviz version 2.40.1 (20161225.0304)
 -->
<!-- Title: %3 Pages: 1 -->
<svg width="578pt" height="355pt"
 viewBox="0.00 0.00 577.92 355.00" xmlns="http://www.w3.org/2000/svg" xmlns:xlink="http://www.w3.org/1999/xlink">
<g id="graph0" class="graph" transform="scale(1 1) rotate(0) translate(4 351)">
<title>%3</title>
<polygon fill="#333333" stroke="transparent" points="-4,4 -4,-351 573.9167,-351 573.9167,4 -4,4"/>
<text text-anchor="middle" x="284.9583" y="-9.2" font-family="Times,serif" font-size="16.00" fill="#ffffff">Network Map</text>
<!-- R4 -->
<g id="node1" class="node">
<title>R4</title>
<polygon fill="#006699" stroke="#006699" points="101.4167,-347 24.4167,-347 24.4167,-274 101.4167,-274 101.4167,-347"/>
<text text-anchor="middle" x="62.9167" y="-306.8" font-family="Helvetica,sans-Serif" font-size="14.00" fill="#ffffff">R4</text>
</g>
<!-- R3 -->
<g id="node2" class="node">
<title>R3</title>
<polygon fill="#006699" stroke="#006699" points="162.4167,-223 85.4167,-223 85.4167,-150 162.4167,-150 162.4167,-223"/>
<text text-anchor="middle" x="123.9167" y="-182.8" font-family="Helvetica,sans-Serif" font-size="14.00" fill="#ffffff">R3</text>
</g>
<!-- R3&#45;&#45;R4 -->
<g id="edge6" class="edge">
<title>R3&#45;&#45;R4</title>
<path fill="none" stroke="#00ff00" stroke-dasharray="5,2" d="M85.33,-212.9421C76.7169,-220.8819 68.7208,-230.3536 63.9167,-241 59.3504,-251.1193 57.9369,-262.9413 58,-273.9353"/>
<text text-anchor="middle" x="113.9167" y="-244.8" font-family="Courier,monospace" font-size="14.00" fill="#ffffff"> &#160;&#160;&#160;&#160;&#160;&#160;&#160;&#160;&#160;&#160;&#160;</text>
<text text-anchor="middle" x="29" y="-262.7353" font-family="Courier,monospace" font-size="14.00" fill="#ffffff">Eth 0/0</text>
<text text-anchor="middle" x="56.33" y="-201.7421" font-family="Courier,monospace" font-size="14.00" fill="#ffffff">Eth 0/1</text>
</g>
<!-- R5 -->
<g id="node5" class="node">
<title>R5</title>
<polygon fill="#006699" stroke="#006699" points="224.4167,-347 147.4167,-347 147.4167,-274 224.4167,-274 224.4167,-347"/>
<text text-anchor="middle" x="185.9167" y="-306.8" font-family="Helvetica,sans-Serif" font-size="14.00" fill="#ffffff">R5</text>
</g>
<!-- R3&#45;&#45;R5 -->
<g id="edge7" class="edge">
<title>R3&#45;&#45;R5</title>
<path fill="none" stroke="#00ff00" stroke-dasharray="5,2" d="M153.3598,-223.2843C157.2246,-229.0244 160.8877,-235.035 163.9167,-241 169.1311,-251.269 173.4183,-263.0192 176.7785,-273.9001"/>
<text text-anchor="middle" x="220.9167" y="-244.8" font-family="Courier,monospace" font-size="14.00" fill="#ffffff"> &#160;&#160;&#160;&#160;&#160;&#160;&#160;&#160;&#160;&#160;&#160;</text>
<text text-anchor="middle" x="147.7785" y="-262.7001" font-family="Courier,monospace" font-size="14.00" fill="#ffffff">Eth 0/0</text>
<text text-anchor="middle" x="124.3598" y="-227.0843" font-family="Courier,monospace" font-size="14.00" fill="#ffffff">Eth 0/2</text>
</g>
<!-- R1 -->
<g id="node3" class="node">
<title>R1</title>
<polygon fill="#006699" stroke="#006699" points="285.4167,-223 208.4167,-223 208.4167,-150 285.4167,-150 285.4167,-223"/>
<text text-anchor="middle" x="246.9167" y="-182.8" font-family="Helvetica,sans-Serif" font-size="14.00" fill="#ffffff">R1</text>
</g>
<!-- R2 -->
<g id="node4" class="node">
<title>R2</title>
<polygon fill="#006699" stroke="#006699" points="408.4167,-223 331.4167,-223 331.4167,-150 408.4167,-150 408.4167,-223"/>
<text text-anchor="middle" x="369.9167" y="-182.8" font-family="Helvetica,sans-Serif" font-size="14.00" fill="#ffffff">R2</text>
</g>
<!-- SW2 -->
<g id="node6" class="node">
<title>SW2</title>
<polygon fill="#006699" stroke="#006699" points="415.4167,-347 324.4167,-347 324.4167,-274 415.4167,-274 415.4167,-347"/>
<text text-anchor="middle" x="369.9167" y="-306.8" font-family="Helvetica,sans-Serif" font-size="14.00" fill="#ffffff">SW2</text>
</g>
<!-- R2&#45;&#45;SW2 -->
<g id="edge5" class="edge">
<title>R2&#45;&#45;SW2</title>
<path fill="none" stroke="#00ff00" stroke-dasharray="5,2" d="M369.9167,-223.0334C369.9167,-239.0358 369.9167,-257.7778 369.9167,-273.7992"/>
<text text-anchor="middle" x="419.9167" y="-244.8" font-family="Courier,monospace" font-size="14.00" fill="#ffffff"> &#160;&#160;&#160;&#160;&#160;&#160;&#160;&#160;&#160;&#160;&#160;</text>
<text text-anchor="middle" x="336.4167" y="-262.5992" font-family="Courier,monospace" font-size="14.00" fill="#ffffff">Eth 0/11</text>
<text text-anchor="middle" x="340.9167" y="-226.8334" font-family="Courier,monospace" font-size="14.00" fill="#ffffff">Eth 0/1</text>
</g>
<!-- R6 -->
<g id="node7" class="node">
<title>R6</title>
<polygon fill="#006699" stroke="#006699" points="531.4167,-223 454.4167,-223 454.4167,-150 531.4167,-150 531.4167,-223"/>
<text text-anchor="middle" x="492.9167" y="-182.8" font-family="Helvetica,sans-Serif" font-size="14.00" fill="#ffffff">R6</text>
</g>
<!-- SW1 -->
<g id="node8" class="node">
<title>SW1</title>
<polygon fill="#006699" stroke="#006699" points="353.4167,-99 262.4167,-99 262.4167,-26 353.4167,-26 353.4167,-99"/>
<text text-anchor="middle" x="307.9167" y="-58.8" font-family="Helvetica,sans-Serif" font-size="14.00" fill="#ffffff">SW1</text>
</g>
<!-- SW1&#45;&#45;R3 -->
<g id="edge3" class="edge">
<title>SW1&#45;&#45;R3</title>
<path fill="none" stroke="#00ff00" stroke-dasharray="5,2" d="M262.251,-71.8446C218.121,-81.7892 155.5714,-98.6019 138.9167,-117 130.8812,-125.8766 126.7815,-138.0046 124.7887,-149.6455"/>
<text text-anchor="middle" x="188.9167" y="-120.8" font-family="Courier,monospace" font-size="14.00" fill="#ffffff"> &#160;&#160;&#160;&#160;&#160;&#160;&#160;&#160;&#160;&#160;&#160;</text>
<text text-anchor="middle" x="95.7887" y="-138.4455" font-family="Courier,monospace" font-size="14.00" fill="#ffffff">Eth 0/0</text>
<text text-anchor="middle" x="233.251" y="-60.6446" font-family="Courier,monospace" font-size="14.00" fill="#ffffff">Eth 0/3</text>
</g>
<!-- SW1&#45;&#45;R1 -->
<g id="edge1" class="edge">
<title>SW1&#45;&#45;R1</title>
<path fill="none" stroke="#00ff00" stroke-dasharray="5,2" d="M262.3666,-95.888C256.5304,-102.2215 251.3896,-109.3038 247.9167,-117 243.3504,-127.1193 241.9369,-138.9413 242,-149.9353"/>
<text text-anchor="middle" x="297.9167" y="-120.8" font-family="Courier,monospace" font-size="14.00" fill="#ffffff"> &#160;&#160;&#160;&#160;&#160;&#160;&#160;&#160;&#160;&#160;&#160;</text>
<text text-anchor="middle" x="213" y="-138.7353" font-family="Courier,monospace" font-size="14.00" fill="#ffffff">Eth 0/0</text>
<text text-anchor="middle" x="233.3666" y="-84.688" font-family="Courier,monospace" font-size="14.00" fill="#ffffff">Eth 0/1</text>
</g>
<!-- SW1&#45;&#45;R2 -->
<g id="edge2" class="edge">
<title>SW1&#45;&#45;R2</title>
<path fill="none" stroke="#00ff00" stroke-dasharray="5,2" d="M337.3598,-99.2843C341.2246,-105.0244 344.8877,-111.035 347.9167,-117 353.1311,-127.269 357.4183,-139.0192 360.7785,-149.9001"/>
<text text-anchor="middle" x="403.9167" y="-120.8" font-family="Courier,monospace" font-size="14.00" fill="#ffffff"> &#160;&#160;&#160;&#160;&#160;&#160;&#160;&#160;&#160;&#160;&#160;</text>
<text text-anchor="middle" x="331.7785" y="-138.7001" font-family="Courier,monospace" font-size="14.00" fill="#ffffff">Eth 0/0</text>
<text text-anchor="middle" x="308.3598" y="-103.0843" font-family="Courier,monospace" font-size="14.00" fill="#ffffff">Eth 0/2</text>
</g>
<!-- SW1&#45;&#45;R6 -->
<g id="edge4" class="edge">
<title>SW1&#45;&#45;R6</title>
<path fill="none" stroke="#00ff00" stroke-dasharray="5,2" d="M353.5057,-69.8276C385.8712,-77.0563 428.6073,-90.9605 457.9167,-117 467.8142,-125.7933 475.263,-138.0391 480.6875,-149.8055"/>
<text text-anchor="middle" x="519.9167" y="-120.8" font-family="Courier,monospace" font-size="14.00" fill="#ffffff"> &#160;&#160;&#160;&#160;&#160;&#160;&#160;&#160;&#160;&#160;&#160;</text>
<text text-anchor="middle" x="451.6875" y="-138.6055" font-family="Courier,monospace" font-size="14.00" fill="#ffffff">Eth 0/1</text>
<text text-anchor="middle" x="382.5057" y="-58.6276" font-family="Courier,monospace" font-size="14.00" fill="#ffffff">Eth 0/5</text>
</g>
</g>
</svg>
